PathFileType	4	(X/Y/Z)	pose_F01_0-87.trc
DataRate	CameraRate	NumFrames	NumMarkers	Units	OrigDataRate	OrigDataStartFrame	OrigNumFrames
30	30	10	21	m	30	52	87
Frame#	Time	CHip			RHip			RKnee			RAnkle			RBigToe			RSmallToe			RHeel			LHip			LKnee			LAnkle			LBigToe			LSmallToe			LHeel			Neck			Nose			RShoulder			RElbow			RWrist			LShoulder			LElbow			LWrist			
		X1	Y1	Z1	X2	Y2	Z2	X3	Y3	Z3	X4	Y4	Z4	X5	Y5	Z5	X6	Y6	Z6	X7	Y7	Z7	X8	Y8	Z8	X9	Y9	Z9	X10	Y10	Z10	X11	Y11	Z11	X12	Y12	Z12	X13	Y13	Z13	X14	Y14	Z14	X15	Y15	Z15	X16	Y16	Z16	X17	Y17	Z17	X18	Y18	Z18	X19	Y19	Z19	X20	Y20	Z20	X21	Y21	Z21	
52	1.7333333333333334	-0.23996810525137113	1.8414653413865802	-0.7660321705820462	-0.24527479403225844	1.8416089647224545	-0.7042108522423712																-0.22973374200247207	1.8440481372247768	-0.8285302785678508	-0.2227374324349759	1.6993535856616815	-0.6703468122369111													-0.22870187860833485	2.000149357720936	-0.8082889220652683	-0.20396587352517367	2.0324676372281605	-0.8537251743094992	-0.24268824310509868	2.0051469750946813	-0.7166844400491809	-0.26024777083896555	1.985060680764851	-0.5920834549965736	-0.25872368804950613	1.943636350126253	-0.4992028120455557	-0.2137386010077512	1.995696779250429	-0.8937833018782608	-0.9560573062512583	1.8254461824657138	-0.2256115269040237	-0.1984617778177241	1.9817070319980596	-0.9044761803154379
53	1.7666666666666666	-0.2400460079039488	1.84227087902109	-0.7661204939233388	-0.24718787832036612	1.8424310805741806	-0.7044895497288252																-0.22929890481605375	1.844383111185476	-0.8303080001404703	-0.2227374324349759	1.6993535856616815	-0.6703468122369111													-0.22866987979861908	2.0001711047331208	-0.8084387497208109	-0.20535375529610425	2.036554389914038	-0.8485106737412509	-0.24064638407179822	2.006340727837003	-0.7191927569277629	-0.27031479083726423	1.97583221274863	-0.5859764493902987	-0.24581864935837652	1.948372182939218	-0.5016091334680847	-0.2135212953399478	1.9975910618802024	-0.8938223669011561	-0.9487510500646588	1.8283662271075278	-0.22744274251932983	-0.1987797354621047	1.9850125321688046	-0.8984615830313863
54	1.8	-0.24012391055652646	1.8430764166555997	-0.7662088172646314	-0.2491009626084738	1.8432531964259065	-0.7047682472152791																-0.22886406762963546	1.8447180851461753	-0.83208572171309	-0.2227374324349759	1.6993535856616815	-0.6703468122369111													-0.22867436266177812	2.0005701574639865	-0.80833069914195	-0.20615902859627974	2.0377210982129315	-0.8405600535895651	-0.24282364523382963	2.0038736245780835	-0.7167385222466275	-0.2637649976636088	1.9718191225110706	-0.5827056223918959	-0.23777022322407396	1.9441623630848326	-0.5101840955475633	-0.21368915426765067	1.9965169427604519	-0.8937935750290481	-0.19658648000336873	1.9324941299361087	-0.9321511047481111	-0.19909769310648534	1.9883180323395495	-0.8924469857473349
55	1.8333333333333333	-0.23625990727414042	1.8446763696720494	-0.7740112566721525	-0.24700610112299665	1.8440438373661672	-0.7130309174214027																-0.22651174840091887	1.8474132709880307	-0.8381601233804281	-0.2227374324349759	1.6993535856616815	-0.6703468122369111													-0.2303955573378733	2.00148086662435	-0.8145374701007017	-0.20688884112620565	2.038465726076227	-0.8329187368544125	-0.24447655990799866	2.0051958950266653	-0.7227814665332842	-0.2670522564314362	1.9717410865961702	-0.5925322418832476	-0.20989191078665292	1.9453544163405363	-0.5530294107826549	-0.21439447049438776	2.0003427217610663	-0.8971672180758393	-0.19164192368686114	1.9377306781000245	-0.9368974732046644	-0.19778840114513463	1.990136186498258	-0.8763527469746679
56	1.8666666666666667	-0.23239590399175442	1.846276322688499	-0.7818136960796737	-0.2449112396375195	1.8448344783064277	-0.7212935876275263																-0.2207959010751873	1.8448490179911718	-0.8476338870732404	-0.2227374324349759	1.6993535856616815	-0.6703468122369111													-0.23122369659723666	2.0013369704534303	-0.817672084165699	-0.20678681110482003	2.042119103724819	-0.8330007179369527	-0.24657773305349454	2.0038721588385493	-0.7293541327131219	-0.2764360890085341	1.969854375766673	-0.6125029834960126	-1.5551463130652026	1.8748890359909873	0.8336360543207337	-0.21275277712475127	2.003314984500213	-0.9024420552541558	-0.18859016486595	1.939778495775179	-0.9367157796146336	-0.19036232848882972	1.987180659341934	-0.8805694561345873
57	1.9	-0.23199685796331584	1.8490289781397002	-0.7904104123887261	-0.24638922808253624	1.8493333022684832	-0.7281397114300204																-0.21926858915062167	1.84937938806306	-0.8533424934125027	-0.2227374324349759	1.6993535856616815	-0.6703468122369111													-0.22968694064762551	2.0022391465709592	-0.8230210006167648	-0.20979140618113126	2.0445987090930404	-0.8338439529406868	-0.24725307568312652	2.005663077999055	-0.7323038120961014	-0.26955755097974415	1.9607896253509114	-0.623693228922431	-1.5057516108493172	1.8794166166461694	0.7364751363994773	-0.21253229022511827	2.003708816920364	-0.9136804969534411	-0.18540645819535775	1.9385201956633549	-0.9469758816657681	-0.19241083303181972	1.9986757576161422	-0.8813901980604232
58	1.9333333333333333	-0.2302103102545015	1.8491267822095345	-0.7959394226628642	-0.24410183769545826	1.8474255221013356	-0.7303513748138072																-0.2174997342502063	1.848069575827601	-0.8586011232654445	-0.2227374324349759	1.6993535856616815	-0.6703468122369111													-0.22592936694037286	2.0030561641933176	-0.8302323885631656	-0.21191859489274634	2.0497076044297975	-0.8320593636764981	-0.24824613162390297	2.0042144696501523	-0.7353422429733386	-1.4420405507035918	1.8551782354515296	0.6030823647097496	-0.2483991217224011	1.97331931415712	-0.5868381458818873	-0.20291462272717026	2.0049974081215964	-0.9226759779621442	-0.18973794933911423	1.9336323714962644	-0.9504604083378494	-0.17653003910599385	1.9932025477964508	-0.9091197776080591
59	1.9666666666666666	-0.2333799315594708	1.8465206512806354	-0.7964978313132155	-0.24407770975344553	1.8433729155661225	-0.7300616308397191																-0.21848326196455717	1.8457800069965624	-0.8612598199365251	-0.2227374324349759	1.6993535856616815	-0.6703468122369111													-0.22535046471467798	2.002305221372113	-0.8276587538631577	-0.21256175219065285	2.05326025618209	-0.8246152514185173	-0.24300248974183772	2.0045335145615595	-0.7368152741920148	-1.400825497320243	1.8549478907910397	0.5557524878607306	-0.2704163630328738	1.9422609639796924	-0.5501225815098499	-0.2075243246804502	1.999564731026839	-0.915300595389097	-0.1930112271504246	1.9306471798161806	-0.9644778327720377	-0.17395482376708415	1.9888701556381538	-0.9459700071524547
60	2.0	-0.2317259277943913	1.8471098456108543	-0.8020896387324024	-0.24469230427355654	1.8444515080635187	-0.7333804616511717																-0.9948238358360855	1.7485684312585144	-0.13302078267147024	-0.2227374324349759	1.6993535856616815	-0.6703468122369111													-0.22288883251839517	2.0013178365876896	-0.8297510324521953	-0.2098044423219666	2.0515356225660133	-0.8245761061433468	-0.23834211255673818	2.004536223098003	-0.7407846467789986	-0.2507296857148577	1.970010361094263	-0.6123910658161615	-0.2515345815879452	1.9261163462817903	-0.5057368798804359	-0.20487115135443973	2.0002998695937513	-0.9174295249938214	-0.915065955692539	1.8245789355550792	-0.29660135282617867	-0.18532345811467252	1.9803349105249035	-0.9554506850378284
61	2.033333333333333	-0.2298912077971188	1.8484977895733552	-0.8059178181993629	-0.24118255879375294	1.847068582506602	-0.7409812247063041																-0.9932772295613495	1.7502551035773024	-0.14027314220007617	-0.2227374324349759	1.6993535856616815	-0.6703468122369111													-0.2258447931144925	2.002557770029625	-0.8304965884783014	-0.20753505163565553	2.0485826033728074	-0.826656891734078	-0.243858077185163	2.001834476081121	-0.7395099242423253	-0.25915396638790983	1.9682459613847794	-0.6120391115496542	-0.2438465180189851	1.9307784294562995	-0.5206882906702842	-0.20601709477204733	2.0029825849666247	-0.9231516205822665	-0.1892611326153796	1.929944156989089	-0.975177715077133	-0.18661850527697527	1.982847879969257	-0.9424331094104021
